<svg xmlns="http://www.w3.org/2000/svg" viewBox="0 0 1008 653" fill="#ffffff" opacity="0.3">
  <circle cx="292" cy="180" r="2.5"/><circle cx="312" cy="180" r="2.5"/><circle cx="332" cy="180" r="2.5"/><circle cx="352" cy="180" r="2.5"/><circle cx="372" cy="180" r="2.5"/><circle cx="392" cy="180" r="2.5"/><circle cx="512" cy="180" r="2.5"/><circle cx="532" cy="180" r="2.5"/><circle cx="552" cy="180" r="2.5"/><circle cx="572" cy="180" r="2.5"/><circle cx="592" cy="180" r="2.5"/><circle cx="612" cy="180" r="2.5"/><circle cx="632" cy="180" r="2.5"/><circle cx="652" cy="180" r="2.5"/><circle cx="752" cy="180" r="2.5"/><circle cx="772" cy="180" r="2.5"/><circle cx="212" cy="200" r="2.5"/><circle cx="232" cy="200" r="2.5"/><circle cx="252" cy="200" r="2.5"/><circle cx="272" cy="200" r="2.5"/><circle cx="292" cy="200" r="2.5"/><circle cx="312" cy="200" r="2.5"/><circle cx="332" cy="200" r="2.5"/><circle cx="352" cy="200" r="2.5"/><circle cx="372" cy="200" r="2.5"/><circle cx="392" cy="200" r="2.5"/><circle cx="412" cy="200" r="2.5"/><circle cx="492" cy="200" r="2.5"/><circle cx="512" cy="200" r="2.5"/><circle cx="532" cy="200" r="2.5"/><circle cx="552" cy="200" r="2.5"/><circle cx="572" cy="200" r="2.5"/><circle cx="592" cy="200" r="2.5"/><circle cx="612" cy="200" r="2.5"/><circle cx="632" cy="200" r="2.5"/><circle cx="652" cy="200" r="2.5"/><circle cx="672" cy="200" r="2.5"/><circle cx="692" cy="200" r="2.5"/><circle cx="732" cy="200" r="2.5"/><circle cx="752" cy="200" r="2.5"/><circle cx="772" cy="200" r="2.5"/><circle cx="792" cy="200" r="2.5"/><circle cx="152" cy="220" r="2.5"/><circle cx="172" cy="220" r="2.5"/><circle cx="192" cy="220" r="2.5"/><circle cx="212" cy="220" r="2.5"/><circle cx="232" cy="220" r="2.5"/><circle cx="252" cy="220" r="2.5"/><circle cx="272" cy="220" r="2.5"/><circle cx="292" cy="220" r="2.5"/><circle cx="312" cy="220" r="2.5"/><circle cx="332" cy="220" r="2.5"/><circle cx="352" cy="220" r="2.5"/><circle cx="372" cy="220" r="2.5"/><circle cx="392" cy="220" r="2.5"/><circle cx="412" cy="220" r="2.5"/><circle cx="432" cy="220" r="2.5"/><circle cx="472" cy="220" r="2.5"/><circle cx="492" cy="220" r="2.5"/><circle cx="512" cy="220" r="2.5"/><circle cx="532" cy="220" r="2.5"/><circle cx="552" cy="220" r="2.5"/><circle cx="572" cy="220" r="2.5"/><circle cx="592" cy="220" r="2.5"/><circle cx="612" cy="220" r="2.5"/><circle cx="632" cy="220" r="2.5"/><circle cx="652" cy="220" r="2.5"/><circle cx="672" cy="220" r="2.5"/><circle cx="692" cy="220" r="2.5"/><circle cx="712" cy="220" r="2.5"/><circle cx="732" cy="220" r="2.5"/><circle cx="752" cy="220" r="2.5"/><circle cx="772" cy="220" r="2.5"/><circle cx="792" cy="220" r="2.5"/><circle cx="812" cy="220" r="2.5"/><circle cx="832" cy="220" r="2.5"/><circle cx="112" cy="240" r="2.5"/><circle cx="132" cy="240" r="2.5"/><circle cx="152" cy="240" r="2.5"/><circle cx="172" cy="240" r="2.5"/><circle cx="192" cy="240" r="2.5"/><circle cx="212" cy="240" r="2.5"/><circle cx="232" cy="240" r="2.5"/><circle cx="252" cy="240" r="2.5"/><circle cx="272" cy="240" r="2.5"/><circle cx="292" cy="240" r="2.5"/><circle cx="312" cy="240" r="2.5"/><circle cx="332" cy="240" r="2.5"/><circle cx="352" cy="240" r="2.5"/><circle cx="372" cy="240" r="2.5"/><circle cx="392" cy="240" r="2.5"/><circle cx="412" cy="240" r="2.5"/><circle cx="432" cy="240" r="2.5"/><circle cx="452" cy="240" r="2.5"/><circle cx="472" cy="240" r="2.5"/><circle cx="492" cy="240" r="2.5"/><circle cx="512" cy="240" r="2.5"/><circle cx="532" cy="240" r="2.5"/><circle cx="552" cy="240" r="2.5"/><circle cx="572" cy="240" r="2.5"/><circle cx="592" cy="240" r="2.5"/><circle cx="612" cy="240" r="2.5"/><circle cx="632" cy="240" r="2.5"/><circle cx="652" cy="240" r="2.5"/><circle cx="672" cy="240" r="2.5"/><circle cx="692" cy="240" r="2.5"/><circle cx="712" cy="240" r="2.5"/><circle cx="732" cy="240" r="2.5"/><circle cx="752" cy="240" r="2.5"/><circle cx="772" cy="240" r="2.5"/><circle cx="792" cy="240" r="2.5"/><circle cx="812" cy="240" r="2.5"/><circle cx="832" cy="240" r="2.5"/><circle cx="852" cy="240" r="2.5"/><circle cx="92" cy="260" r="2.5"/><circle cx="112" cy="260" r="2.5"/><circle cx="132" cy="260" r="2.5"/><circle cx="152" cy="260" r="2.5"/><circle cx="172" cy="260" r="2.5"/><circle cx="192" cy="260" r="2.5"/><circle cx="212" cy="260" r="2.5"/><circle cx="232" cy="260" r="2.5"/><circle cx="252" cy="260" r="2.5"/><circle cx="272" cy="260" r="2.5"/><circle cx="292" cy="260" r="2.5"/><circle cx="312" cy="260" r="2.5"/><circle cx="332" cy="260" r="2.5"/><circle cx="352" cy="260" r="2.5"/><circle cx="372" cy="260" r="2.5"/><circle cx="392" cy="260" r="2.5"/><circle cx="412" cy="260" r="2.5"/><circle cx="432" cy="260" r="2.5"/><circle cx="452" cy="260" r="2.5"/><circle cx="472" cy="260" r="2.5"/><circle cx="492" cy="260" r="2.5"/><circle cx="512" cy="260" r="2.5"/><circle cx="532" cy="260" r="2.5"/><circle cx="552" cy="260" r="2.5"/><circle cx="572" cy="260" r="2.5"/><circle cx="592" cy="260" r="2.5"/><circle cx="612" cy="260" r="2.5"/><circle cx="632" cy="260" r="2.5"/><circle cx="652" cy="260" r="2.5"/><circle cx="672" cy="260" r="2.5"/><circle cx="692" cy="260" r="2.5"/><circle cx="712" cy="260" r="2.5"/><circle cx="732" cy="260" r="2.5"/><circle cx="752" cy="260" r="2.5"/><circle cx="772" cy="260" r="2.5"/><circle cx="792" cy="260" r="2.5"/><circle cx="812" cy="260" r="2.5"/><circle cx="832" cy="260" r="2.5"/><circle cx="852" cy="260" r="2.5"/><circle cx="872" cy="260" r="2.5"/><circle cx="72" cy="280" r="2.5"/><circle cx="92" cy="280" r="2.5"/><circle cx="112" cy="280" r="2.5"/><circle cx="132" cy="280" r="2.5"/><circle cx="152" cy="280" r="2.5"/><circle cx="172" cy="280" r="2.5"/><circle cx="192" cy="280" r="2.5"/><circle cx="212" cy="280" r="2.5"/><circle cx="232" cy="280" r="2.5"/><circle cx="252" cy="280" r="2.5"/><circle cx="272" cy="280" r="2.5"/><circle cx="292" cy="280" r="2.5"/><circle cx="312" cy="280" r="2.5"/><circle cx="332" cy="280" r="2.5"/><circle cx="352" cy="280" r="2.5"/><circle cx="372" cy="280" r="2.5"/><circle cx="392" cy="280" r="2.5"/><circle cx="412" cy="280" r="2.5"/><circle cx="432" cy="280" r="2.5"/><circle cx="452" cy="280" r="2.5"/><circle cx="472" cy="280" r="2.5"/><circle cx="492" cy="280" r="2.5"/><circle cx="512" cy="280" r="2.5"/><circle cx="532" cy="280" r="2.5"/><circle cx="552" cy="280" r="2.5"/><circle cx="572" cy="280" r="2.5"/><circle cx="592" cy="280" r="2.5"/><circle cx="612" cy="280" r="2.5"/><circle cx="632" cy="280" r="2.5"/><circle cx="652" cy="280" r="2.5"/><circle cx="672" cy="280" r="2.5"/><circle cx="692" cy="280" r="2.5"/><circle cx="712" cy="280" r="2.5"/><circle cx="732" cy="280" r="2.5"/><circle cx="752" cy="280" r="2.5"/><circle cx="772" cy="280" r="2.5"/><circle cx="792" cy="280" r="2.5"/><circle cx="812" cy="280" r="2.5"/><circle cx="832" cy="280" r="2.5"/><circle cx="852" cy="280" r="2.5"/><circle cx="872" cy="280" r="2.5"/><circle cx="892" cy="280" r="2.5"/><circle cx="912" cy="280" r="2.5"/><circle cx="72" cy="300" r="2.5"/><circle cx="92" cy="300" r="2.5"/><circle cx="112" cy="300" r="2.5"/><circle cx="132" cy="300" r="2.5"/><circle cx="152" cy="300" r="2.5"/><circle cx="172" cy="300" r="2.5"/><circle cx="192" cy="300" r="2.5"/><circle cx="212" cy="300" r="2.5"/><circle cx="232" cy="300" r="2.5"/><circle cx="252" cy="300" r="2.5"/><circle cx="272" cy="300" r="2.5"/><circle cx="292" cy="300" r="2.5"/><circle cx="312" cy="300" r="2.5"/><circle cx="332" cy="300" r="2.5"/><circle cx="352" cy="300" r="2.5"/><circle cx="372" cy="300" r="2.5"/><circle cx="392" cy="300" r="2.5"/><circle cx="412" cy="300" r="2.5"/><circle cx="432" cy="300" r="2.5"/><circle cx="452" cy="300" r="2.5"/><circle cx="472" cy="300" r="2.5"/><circle cx="492" cy="300" r="2.5"/><circle cx="512" cy="300" r="2.5"/><circle cx="532" cy="300" r="2.5"/><circle cx="552" cy="300" r="2.5"/><circle cx="572" cy="300" r="2.5"/><circle cx="592" cy="300" r="2.5"/><circle cx="612" cy="300" r="2.5"/><circle cx="632" cy="300" r="2.5"/><circle cx="652" cy="300" r="2.5"/><circle cx="672" cy="300" r="2.5"/><circle cx="692" cy="300" r="2.5"/><circle cx="712" cy="300" r="2.5"/><circle cx="732" cy="300" r="2.5"/><circle cx="752" cy="300" r="2.5"/><circle cx="772" cy="300" r="2.5"/><circle cx="792" cy="300" r="2.5"/><circle cx="812" cy="300" r="2.5"/><circle cx="832" cy="300" r="2.5"/><circle cx="852" cy="300" r="2.5"/><circle cx="872" cy="300" r="2.5"/><circle cx="892" cy="300" r="2.5"/><circle cx="912" cy="300" r="2.5"/><circle cx="932" cy="300" r="2.5"/><circle cx="952" cy="300" r="2.5"/><circle cx="92" cy="320" r="2.5"/><circle cx="112" cy="320" r="2.5"/><circle cx="132" cy="320" r="2.5"/><circle cx="152" cy="320" r="2.5"/><circle cx="172" cy="320" r="2.5"/><circle cx="192" cy="320" r="2.5"/><circle cx="212" cy="320" r="2.5"/><circle cx="232" cy="320" r="2.5"/><circle cx="252" cy="320" r="2.5"/><circle cx="272" cy="320" r="2.5"/><circle cx="292" cy="320" r="2.5"/><circle cx="312" cy="320" r="2.5"/><circle cx="332" cy="320" r="2.5"/><circle cx="352" cy="320" r="2.5"/><circle cx="372" cy="320" r="2.5"/><circle cx="392" cy="320" r="2.5"/><circle cx="412" cy="320" r="2.5"/><circle cx="432" cy="320" r="2.5"/><circle cx="452" cy="320" r="2.5"/><circle cx="472" cy="320" r="2.5"/><circle cx="492" cy="320" r="2.5"/><circle cx="512" cy="320" r="2.5"/><circle cx="532" cy="320" r="2.5"/><circle cx="552" cy="320" r="2.5"/><circle cx="572" cy="320" r="2.5"/><circle cx="592" cy="320" r="2.5"/><circle cx="612" cy="320" r="2.5"/><circle cx="632" cy="320" r="2.5"/><circle cx="652" cy="320" r="2.5"/><circle cx="672" cy="320" r="2.5"/><circle cx="692" cy="320" r="2.5"/><circle cx="712" cy="320" r="2.5"/><circle cx="732" cy="320" r="2.5"/><circle cx="752" cy="320" r="2.5"/><circle cx="772" cy="320" r="2.5"/><circle cx="792" cy="320" r="2.5"/><circle cx="812" cy="320" r="2.5"/><circle cx="832" cy="320" r="2.5"/><circle cx="852" cy="320" r="2.5"/><circle cx="872" cy="320" r="2.5"/><circle cx="892" cy="320" r="2.5"/><circle cx="912" cy="320" r="2.5"/><circle cx="932" cy="320" r="2.5"/><circle cx="952" cy="320" r="2.5"/><circle cx="972" cy="320" r="2.5"/><circle cx="112" cy="340" r="2.5"/><circle cx="132" cy="340" r="2.5"/><circle cx="152" cy="340" r="2.5"/><circle cx="172" cy="340" r="2.5"/><circle cx="192" cy="340" r="2.5"/><circle cx="212" cy="340" r="2.5"/><circle cx="232" cy="340" r="2.5"/><circle cx="252" cy="340" r="2.5"/><circle cx="272" cy="340" r="2.5"/><circle cx="292" cy="340" r="2.5"/><circle cx="312" cy="340" r="2.5"/><circle cx="332" cy="340" r="2.5"/><circle cx="352" cy="340" r="2.5"/><circle cx="372" cy="340" r="2.5"/><circle cx="392" cy="340" r="2.5"/><circle cx="412" cy="340" r="2.5"/><circle cx="432" cy="340" r="2.5"/><circle cx="452" cy="340" r="2.5"/><circle cx="472" cy="340" r="2.5"/><circle cx="492" cy="340" r="2.5"/><circle cx="512" cy="340" r="2.5"/><circle cx="532" cy="340" r="2.5"/><circle cx="552" cy="340" r="2.5"/><circle cx="572" cy="340" r="2.5"/><circle cx="592" cy="340" r="2.5"/><circle cx="612" cy="340" r="2.5"/><circle cx="632" cy="340" r="2.5"/><circle cx="652" cy="340" r="2.5"/><circle cx="672" cy="340" r="2.5"/><circle cx="692" cy="340" r="2.5"/><circle cx="712" cy="340" r="2.5"/><circle cx="732" cy="340" r="2.5"/><circle cx="752" cy="340" r="2.5"/><circle cx="772" cy="340" r="2.5"/><circle cx="792" cy="340" r="2.5"/><circle cx="812" cy="340" r="2.5"/><circle cx="832" cy="340" r="2.5"/><circle cx="852" cy="340" r="2.5"/><circle cx="872" cy="340" r="2.5"/><circle cx="892" cy="340" r="2.5"/><circle cx="912" cy="340" r="2.5"/><circle cx="932" cy="340" r="2.5"/><circle cx="952" cy="340" r="2.5"/><circle cx="132" cy="360" r="2.5"/><circle cx="152" cy="360" r="2.5"/><circle cx="172" cy="360" r="2.5"/><circle cx="192" cy="360" r="2.5"/><circle cx="212" cy="360" r="2.5"/><circle cx="232" cy="360" r="2.5"/><circle cx="252" cy="360" r="2.5"/><circle cx="272" cy="360" r="2.5"/><circle cx="292" cy="360" r="2.5"/><circle cx="312" cy="360" r="2.5"/><circle cx="332" cy="360" r="2.5"/><circle cx="352" cy="360" r="2.5"/><circle cx="372" cy="360" r="2.5"/><circle cx="392" cy="360" r="2.5"/><circle cx="412" cy="360" r="2.5"/><circle cx="432" cy="360" r="2.5"/><circle cx="452" cy="360" r="2.5"/><circle cx="472" cy="360" r="2.5"/><circle cx="492" cy="360" r="2.5"/><circle cx="512" cy="360" r="2.5"/><circle cx="532" cy="360" r="2.5"/><circle cx="552" cy="360" r="2.5"/><circle cx="572" cy="360" r="2.5"/><circle cx="592" cy="360" r="2.5"/><circle cx="612" cy="360" r="2.5"/><circle cx="632" cy="360" r="2.5"/><circle cx="652" cy="360" r="2.5"/><circle cx="672" cy="360" r="2.5"/><circle cx="692" cy="360" r="2.5"/><circle cx="712" cy="360" r="2.5"/><circle cx="732" cy="360" r="2.5"/><circle cx="752" cy="360" r="2.5"/><circle cx="772" cy="360" r="2.5"/><circle cx="792" cy="360" r="2.5"/><circle cx="812" cy="360" r="2.5"/><circle cx="832" cy="360" r="2.5"/><circle cx="852" cy="360" r="2.5"/><circle cx="872" cy="360" r="2.5"/><circle cx="892" cy="360" r="2.5"/><circle cx="912" cy="360" r="2.5"/><circle cx="932" cy="360" r="2.5"/><circle cx="152" cy="380" r="2.5"/><circle cx="172" cy="380" r="2.5"/><circle cx="192" cy="380" r="2.5"/><circle cx="212" cy="380" r="2.5"/><circle cx="232" cy="380" r="2.5"/><circle cx="252" cy="380" r="2.5"/><circle cx="272" cy="380" r="2.5"/><circle cx="292" cy="380" r="2.5"/><circle cx="312" cy="380" r="2.5"/><circle cx="332" cy="380" r="2.5"/><circle cx="352" cy="380" r="2.5"/><circle cx="372" cy="380" r="2.5"/><circle cx="392" cy="380" r="2.5"/><circle cx="412" cy="380" r="2.5"/><circle cx="432" cy="380" r="2.5"/><circle cx="452" cy="380" r="2.5"/><circle cx="472" cy="380" r="2.5"/><circle cx="492" cy="380" r="2.5"/><circle cx="512" cy="380" r="2.5"/><circle cx="532" cy="380" r="2.5"/><circle cx="552" cy="380" r="2.5"/><circle cx="572" cy="380" r="2.5"/><circle cx="592" cy="380" r="2.5"/><circle cx="612" cy="380" r="2.5"/><circle cx="632" cy="380" r="2.5"/><circle cx="652" cy="380" r="2.5"/><circle cx="672" cy="380" r="2.5"/><circle cx="692" cy="380" r="2.5"/><circle cx="712" cy="380" r="2.5"/><circle cx="732" cy="380" r="2.5"/><circle cx="752" cy="380" r="2.5"/><circle cx="772" cy="380" r="2.5"/><circle cx="792" cy="380" r="2.5"/><circle cx="812" cy="380" r="2.5"/><circle cx="832" cy="380" r="2.5"/><circle cx="852" cy="380" r="2.5"/><circle cx="872" cy="380" r="2.5"/><circle cx="892" cy="380" r="2.5"/><circle cx="172" cy="400" r="2.5"/><circle cx="192" cy="400" r="2.5"/><circle cx="212" cy="400" r="2.5"/><circle cx="232" cy="400" r="2.5"/><circle cx="252" cy="400" r="2.5"/><circle cx="272" cy="400" r="2.5"/><circle cx="292" cy="400" r="2.5"/><circle cx="312" cy="400" r="2.5"/><circle cx="332" cy="400" r="2.5"/><circle cx="352" cy="400" r="2.5"/><circle cx="372" cy="400" r="2.5"/><circle cx="392" cy="400" r="2.5"/><circle cx="412" cy="400" r="2.5"/><circle cx="432" cy="400" r="2.5"/><circle cx="452" cy="400" r="2.5"/><circle cx="472" cy="400" r="2.5"/><circle cx="492" cy="400" r="2.5"/><circle cx="512" cy="400" r="2.5"/><circle cx="532" cy="400" r="2.5"/><circle cx="552" cy="400" r="2.5"/><circle cx="572" cy="400" r="2.5"/><circle cx="592" cy="400" r="2.5"/><circle cx="612" cy="400" r="2.5"/><circle cx="632" cy="400" r="2.5"/><circle cx="652" cy="400" r="2.5"/><circle cx="672" cy="400" r="2.5"/><circle cx="692" cy="400" r="2.5"/><circle cx="712" cy="400" r="2.5"/><circle cx="732" cy="400" r="2.5"/><circle cx="752" cy="400" r="2.5"/><circle cx="772" cy="400" r="2.5"/><circle cx="792" cy="400" r="2.5"/><circle cx="812" cy="400" r="2.5"/><circle cx="832" cy="400" r="2.5"/><circle cx="852" cy="400" r="2.5"/><circle cx="192" cy="420" r="2.5"/><circle cx="212" cy="420" r="2.5"/><circle cx="232" cy="420" r="2.5"/><circle cx="252" cy="420" r="2.5"/><circle cx="272" cy="420" r="2.5"/><circle cx="292" cy="420" r="2.5"/><circle cx="312" cy="420" r="2.5"/><circle cx="332" cy="420" r="2.5"/><circle cx="352" cy="420" r="2.5"/><circle cx="372" cy="420" r="2.5"/><circle cx="392" cy="420" r="2.5"/><circle cx="412" cy="420" r="2.5"/><circle cx="432" cy="420" r="2.5"/><circle cx="452" cy="420" r="2.5"/><circle cx="472" cy="420" r="2.5"/><circle cx="492" cy="420" r="2.5"/><circle cx="512" cy="420" r="2.5"/><circle cx="532" cy="420" r="2.5"/><circle cx="552" cy="420" r="2.5"/><circle cx="572" cy="420" r="2.5"/><circle cx="592" cy="420" r="2.5"/><circle cx="612" cy="420" r="2.5"/><circle cx="632" cy="420" r="2.5"/><circle cx="652" cy="420" r="2.5"/><circle cx="672" cy="420" r="2.5"/><circle cx="692" cy="420" r="2.5"/><circle cx="712" cy="420" r="2.5"/><circle cx="732" cy="420" r="2.5"/><circle cx="752" cy="420" r="2.5"/><circle cx="772" cy="420" r="2.5"/><circle cx="792" cy="420" r="2.5"/><circle cx="812" cy="420" r="2.5"/><circle cx="212" cy="440" r="2.5"/><circle cx="232" cy="440" r="2.5"/><circle cx="252" cy="440" r="2.5"/><circle cx="272" cy="440" r="2.5"/><circle cx="292" cy="440" r="2.5"/><circle cx="312" cy="440" r="2.5"/><circle cx="332" cy="440" r="2.5"/><circle cx="352" cy="440" r="2.5"/><circle cx="372" cy="440" r="2.5"/><circle cx="392" cy="440" r="2.5"/><circle cx="412" cy="440" r="2.5"/><circle cx="432" cy="440" r="2.5"/><circle cx="452" cy="440" r="2.5"/><circle cx="472" cy="440" r="2.5"/><circle cx="492" cy="440" r="2.5"/><circle cx="512" cy="440" r="2.5"/><circle cx="532" cy="440" r="2.5"/><circle cx="552" cy="440" r="2.5"/><circle cx="572" cy="440" r="2.5"/><circle cx="592" cy="440" r="2.5"/><circle cx="612" cy="440" r="2.5"/><circle cx="632" cy="440" r="2.5"/><circle cx="652" cy="440" r="2.5"/><circle cx="672" cy="440" r="2.5"/><circle cx="692" cy="440" r="2.5"/><circle cx="712" cy="440" r="2.5"/><circle cx="732" cy="440" r="2.5"/><circle cx="752" cy="440" r="2.5"/><circle cx="772" cy="440" r="2.5"/><circle cx="232" cy="460" r="2.5"/><circle cx="252" cy="460" r="2.5"/><circle cx="272" cy="460" r="2.5"/><circle cx="292" cy="460" r="2.5"/><circle cx="312" cy="460" r="2.5"/><circle cx="332" cy="460" r="2.5"/><circle cx="352" cy="460" r="2.5"/><circle cx="372" cy="460" r="2.5"/><circle cx="392" cy="460" r="2.5"/><circle cx="412" cy="460" r="2.5"/><circle cx="432" cy="460" r="2.5"/><circle cx="452" cy="460" r="2.5"/><circle cx="472" cy="460" r="2.5"/><circle cx="492" cy="460" r="2.5"/><circle cx="512" cy="460" r="2.5"/><circle cx="532" cy="460" r="2.5"/><circle cx="552" cy="460" r="2.5"/><circle cx="572" cy="460" r="2.5"/><circle cx="592" cy="460" r="2.5"/><circle cx="612" cy="460" r="2.5"/><circle cx="632" cy="460" r="2.5"/><circle cx="652" cy="460" r="2.5"/><circle cx="672" cy="460" r="2.5"/><circle cx="692" cy="460" r="2.5"/><circle cx="712" cy="460" r="2.5"/><circle cx="732" cy="460" r="2.5"/><circle cx="252" cy="480" r="2.5"/><circle cx="272" cy="480" r="2.5"/><circle cx="292" cy="480" r="2.5"/><circle cx="312" cy="480" r="2.5"/><circle cx="332" cy="480" r="2.5"/><circle cx="352" cy="480" r="2.5"/><circle cx="372" cy="480" r="2.5"/><circle cx="392" cy="480" r="2.5"/><circle cx="412" cy="480" r="2.5"/><circle cx="432" cy="480" r="2.5"/><circle cx="452" cy="480" r="2.5"/><circle cx="472" cy="480" r="2.5"/><circle cx="492" cy="480" r="2.5"/><circle cx="512" cy="480" r="2.5"/><circle cx="532" cy="480" r="2.5"/><circle cx="552" cy="480" r="2.5"/><circle cx="572" cy="480" r="2.5"/><circle cx="592" cy="480" r="2.5"/><circle cx="612" cy="480" r="2.5"/><circle cx="632" cy="480" r="2.5"/><circle cx="652" cy="480" r="2.5"/><circle cx="672" cy="480" r="2.5"/><circle cx="692" cy="480" r="2.5"/><circle cx="272" cy="500" r="2.5"/><circle cx="292" cy="500" r="2.5"/><circle cx="312" cy="500" r="2.5"/><circle cx="332" cy="500" r="2.5"/><circle cx="352" cy="500" r="2.5"/><circle cx="372" cy="500" r="2.5"/><circle cx="392" cy="500" r="2.5"/><circle cx="412" cy="500" r="2.5"/><circle cx="432" cy="500" r="2.5"/><circle cx="452" cy="500" r="2.5"/><circle cx="472" cy="500" r="2.5"/><circle cx="492" cy="500" r="2.5"/><circle cx="512" cy="500" r="2.5"/><circle cx="532" cy="500" r="2.5"/><circle cx="552" cy="500" r="2.5"/><circle cx="572" cy="500" r="2.5"/><circle cx="592" cy="500" r="2.5"/><circle cx="612" cy="500" r="2.5"/><circle cx="632" cy="500" r="2.5"/><circle cx="652" cy="500" r="2.5"/><circle cx="292" cy="520" r="2.5"/><circle cx="312" cy="520" r="2.5"/><circle cx="332" cy="520" r="2.5"/><circle cx="352" cy="520" r="2.5"/><circle cx="372" cy="520" r="2.5"/><circle cx="392" cy="520" r="2.5"/><circle cx="412" cy="520" r="2.5"/><circle cx="432" cy="520" r="2.5"/><circle cx="452" cy="520" r="2.5"/><circle cx="472" cy="520" r="2.5"/><circle cx="492" cy="520" r="2.5"/><circle cx="512" cy="520" r="2.5"/><circle cx="532" cy="520" r="2.5"/><circle cx="552" cy="520" r="2.5"/><circle cx="572" cy="520" r="2.5"/><circle cx="592" cy="520" r="2.5"/><circle cx="612" cy="520" r="2.5"/><circle cx="312" cy="540" r="2.5"/><circle cx="332" cy="540" r="2.5"/><circle cx="352" cy="540" r="2.5"/><circle cx="372" cy="540" r="2.5"/><circle cx="392" cy="540" r="2.5"/><circle cx="412" cy="540" r="2.5"/><circle cx="432" cy="540" r="2.5"/><circle cx="452" cy="540" r="2.5"/><circle cx="472" cy="540" r="2.5"/><circle cx="492" cy="540" r="2.5"/><circle cx="512" cy="540" r="2.5"/><circle cx="532" cy="540" r="2.5"/><circle cx="552" cy="540" r="2.5"/><circle cx="352" cy="560" r="2.5"/><circle cx="372" cy="560" r="2.5"/><circle cx="392" cy="560" r="2.5"/><circle cx="412" cy="560" r="2.5"/><circle cx="432" cy="560" r="2.5"/><circle cx="452" cy="560" r="2.5"/><circle cx="472" cy="560" r="2.5"/><circle cx="492" cy="560" r="2.5"/><circle cx="512" cy="560" r="2.5"/><circle cx="372" cy="580" r="2.5"/><circle cx="392" cy="580" r="2.5"/><circle cx="412" cy="580" r="2.5"/><circle cx="432" cy="580" r="2.5"/><circle cx="452" cy="580" r="2.5"/><circle cx="472" cy="580" r="2.5"/><circle cx="392" cy="600" r="2.5"/><circle cx="412" cy="600" r="2.5"/><circle cx="432" cy="600" r="2.5"/><circle cx="452" cy="600" r="2.5"/><circle cx="412" cy="620" r="2.5"/><circle cx="432" cy="620" r="2.5"/>
</svg>
